# xmcd
#
# Track frame offsets:
#  157
#  21617
#  48035
#  62852
#  79257
#  97177
#  113170
#  140052
#  165205
#  182562
#  203660
#
# Disc length: 2926 seconds
#
# Revision: 10
# Processed by: cddbd v1.5.1PL2 Copyright (c) Steve Scherf et al.
# Submitted via: Collectorz.com_Music_Collector 6.11
#
DISCID=940b6c0b
DTITLE=Little Jimmy King - Little Jimmy King And The Soul Memphis Survivors
DYEAR=1991
DGENRE=Blues
TTITLE0=Jimmy King - Ron Levy - King's Crosstown Shuffle
TTITLE1=Jim McCracklin - Same Lovin'
TTITLE2=Cedric McCory - Jimmy King - Born Again
TTITLE3=Albert King - Wild Woman
TTITLE4=Unknow - Every Night
TTITLE5=Art Neville - Eric Kolb - Kelsey Smith - April Neville - Another Blues Stringer
TTITLE6=S. Stewart - Sex Machine
TTITLE7=Jimmy King - Lovin' Someone Else
TTITLE8=Alonzo Joe Campbell - Joyce Ann Smith - Another Man's Cologne
TTITLE9=Melvin Lee - Jimmy King - Doin' My Own Thing
TTITLE10=Melvin Lee - Jimmy King - My Muscadine Wine
EXTD=
EXTT0=
EXTT1=
EXTT2=
EXTT3=
EXTT4=
EXTT5=
EXTT6=
EXTT7=
EXTT8=
EXTT9=
EXTT10=
PLAYORDER=
